<svg width="45" height="45" viewBox="0 0 45 45" fill="none" xmlns="http://www.w3.org/2000/svg">
<path fill-rule="evenodd" clip-rule="evenodd" d="M13.2239 0.135C15.6232 0.0245454 16.3882 0 22.5 0C28.6118 0 29.3768 0.0265909 31.7741 0.135C34.1714 0.243409 35.8077 0.625909 37.2395 1.18023C38.7389 1.74682 40.0991 2.6325 41.2241 3.77795C42.3695 4.90091 43.2532 6.25909 43.8177 7.76045C44.3741 9.19227 44.7545 10.8286 44.865 13.2218C44.9755 15.6252 45 16.3902 45 22.5C45 28.6118 44.9734 29.3768 44.865 31.7761C44.7566 34.1693 44.3741 35.8057 43.8177 37.2375C43.2532 38.7391 42.3681 40.0995 41.2241 41.2241C40.0991 42.3695 38.7389 43.2532 37.2395 43.8177C35.8077 44.3741 34.1714 44.7545 31.7782 44.865C29.3768 44.9755 28.6118 45 22.5 45C16.3882 45 15.6232 44.9734 13.2239 44.865C10.8307 44.7566 9.19432 44.3741 7.7625 43.8177C6.26097 43.2531 4.90054 42.368 3.77591 41.2241C2.63123 40.1005 1.74542 38.7407 1.18023 37.2395C0.625909 35.8077 0.245455 34.1714 0.135 31.7782C0.0245454 29.3748 0 28.6098 0 22.5C0 16.3882 0.0265909 15.6232 0.135 13.2259C0.243409 10.8286 0.625909 9.19227 1.18023 7.76045C1.74625 6.25926 2.63274 4.8995 3.77795 3.77591C4.90099 2.63148 6.26006 1.74568 7.76045 1.18023C9.19227 0.625909 10.8286 0.245455 13.2218 0.135H13.2239ZM31.592 4.185C29.2193 4.07659 28.5075 4.05409 22.5 4.05409C16.4925 4.05409 15.7807 4.07659 13.408 4.185C11.2132 4.28523 10.0227 4.65136 9.22909 4.96023C8.17977 5.36932 7.42909 5.85409 6.64159 6.64159C5.89509 7.36783 5.3206 8.25194 4.96023 9.22909C4.65136 10.0227 4.28523 11.2132 4.185 13.408C4.07659 15.7807 4.05409 16.4925 4.05409 22.5C4.05409 28.5075 4.07659 29.2193 4.185 31.592C4.28523 33.7868 4.65136 34.9773 4.96023 35.7709C5.32023 36.7466 5.895 37.6323 6.64159 38.3584C7.36773 39.105 8.25341 39.6798 9.22909 40.0398C10.0227 40.3486 11.2132 40.7148 13.408 40.815C15.7807 40.9234 16.4905 40.9459 22.5 40.9459C28.5095 40.9459 29.2193 40.9234 31.592 40.815C33.7868 40.7148 34.9773 40.3486 35.7709 40.0398C36.8202 39.6307 37.5709 39.1459 38.3584 38.3584C39.105 37.6323 39.6798 36.7466 40.0398 35.7709C40.3486 34.9773 40.7148 33.7868 40.815 31.592C40.9234 29.2193 40.9459 28.5075 40.9459 22.5C40.9459 16.4925 40.9234 15.7807 40.815 13.408C40.7148 11.2132 40.3486 10.0227 40.0398 9.22909C39.6307 8.17977 39.1459 7.42909 38.3584 6.64159C37.6321 5.89515 36.748 5.32066 35.7709 4.96023C34.9773 4.65136 33.7868 4.28523 31.592 4.185ZM19.6261 29.4361C21.2311 30.1042 23.0183 30.1944 24.6824 29.6912C26.3464 29.1881 27.7842 28.1228 28.7501 26.6773C29.716 25.2318 30.1501 23.4959 29.9783 21.7659C29.8064 20.0359 29.0393 18.4193 27.808 17.192C27.023 16.4076 26.0738 15.8069 25.0289 15.4333C23.9839 15.0596 22.8691 14.9223 21.7646 15.0313C20.6602 15.1402 19.5937 15.4926 18.6419 16.0632C17.69 16.6338 16.8765 17.4083 16.2599 18.3311C15.6434 19.2538 15.239 20.3017 15.0761 21.3995C14.9131 22.4972 14.9955 23.6174 15.3175 24.6795C15.6394 25.7415 16.1928 26.719 16.9378 27.5415C17.6829 28.364 18.601 29.0111 19.6261 29.4361ZM14.3223 14.3223C15.3962 13.2484 16.6711 12.3965 18.0742 11.8153C19.4774 11.2341 20.9813 10.9349 22.5 10.9349C24.0187 10.9349 25.5226 11.2341 26.9258 11.8153C28.3289 12.3965 29.6038 13.2484 30.6777 14.3223C31.7516 15.3962 32.6035 16.6711 33.1847 18.0742C33.7659 19.4774 34.0651 20.9813 34.0651 22.5C34.0651 24.0187 33.7659 25.5226 33.1847 26.9258C32.6035 28.3289 31.7516 29.6038 30.6777 30.6777C28.5089 32.8466 25.5672 34.0651 22.5 34.0651C19.4328 34.0651 16.4911 32.8466 14.3223 30.6777C12.1534 28.5089 10.9349 25.5672 10.9349 22.5C10.9349 19.4328 12.1534 16.4911 14.3223 14.3223ZM36.63 12.6573C36.8961 12.4062 37.1092 12.1043 37.2565 11.7695C37.4039 11.4346 37.4826 11.0736 37.4879 10.7078C37.4932 10.342 37.4251 9.97885 37.2876 9.63984C37.15 9.30083 36.9459 8.99286 36.6872 8.73417C36.4285 8.47548 36.1205 8.27132 35.7815 8.13379C35.4425 7.99625 35.0794 7.92813 34.7136 7.93347C34.3477 7.9388 33.9867 8.01747 33.6519 8.16483C33.317 8.31219 33.0151 8.52524 32.7641 8.79136C32.2759 9.30892 32.0086 9.99638 32.0189 10.7078C32.0293 11.4192 32.3165 12.0986 32.8196 12.6017C33.3227 13.1048 34.0021 13.3921 34.7136 13.4024C35.425 13.4128 36.1124 13.1455 36.63 12.6573Z" fill="white"/>
</svg>
