<svg width="151" height="35" viewBox="0 0 151 35" fill="none" xmlns="http://www.w3.org/2000/svg">
<path d="M10.9876 27.3789C7.85495 27.3789 5.44232 26.6337 3.74969 25.1432C2.05706 23.6526 1.13495 21.5558 0.983371 18.8526C0.958108 18.5242 0.945477 17.9558 0.945477 17.1474C0.945477 16.3389 0.958108 15.7705 0.983371 15.4421C1.13495 12.7642 2.08232 10.68 3.82548 9.18948C5.56863 7.67369 7.956 6.91579 10.9876 6.91579C14.0444 6.91579 16.4444 7.67369 18.1876 9.18948C19.9307 10.68 20.8781 12.7642 21.0297 15.4421C21.0549 15.7705 21.0676 16.3389 21.0676 17.1474C21.0676 17.9558 21.0549 18.5242 21.0297 18.8526C20.8781 21.5558 19.956 23.6526 18.2634 25.1432C16.5707 26.6337 14.1455 27.3789 10.9876 27.3789ZM10.9876 22.7558C12.0992 22.7558 12.9202 22.4274 13.4507 21.7705C13.9813 21.0884 14.2844 20.0526 14.3602 18.6632C14.3855 18.4105 14.3981 17.9053 14.3981 17.1474C14.3981 16.3895 14.3855 15.8842 14.3602 15.6316C14.2844 14.2674 13.9686 13.2442 13.4128 12.5621C12.8823 11.88 12.0739 11.539 10.9876 11.539C8.89074 11.539 7.77916 12.9032 7.65284 15.6316L7.61495 17.1474L7.65284 18.6632C7.70337 20.0526 7.9939 21.0884 8.52442 21.7705C9.08021 22.4274 9.90126 22.7558 10.9876 22.7558ZM34.1537 27.3789C31.0211 27.3789 28.6084 26.6337 26.9158 25.1432C25.2232 23.6526 24.3011 21.5558 24.1495 18.8526C24.1242 18.5242 24.1116 17.9558 24.1116 17.1474C24.1116 16.3389 24.1242 15.7705 24.1495 15.4421C24.3011 12.7642 25.2484 10.68 26.9916 9.18948C28.7347 7.67369 31.1221 6.91579 34.1537 6.91579C37.2105 6.91579 39.6105 7.67369 41.3537 9.18948C43.0968 10.68 44.0442 12.7642 44.1958 15.4421C44.2211 15.7705 44.2337 16.3389 44.2337 17.1474C44.2337 17.9558 44.2211 18.5242 44.1958 18.8526C44.0442 21.5558 43.1221 23.6526 41.4295 25.1432C39.7368 26.6337 37.3116 27.3789 34.1537 27.3789ZM34.1537 22.7558C35.2653 22.7558 36.0863 22.4274 36.6168 21.7705C37.1474 21.0884 37.4505 20.0526 37.5263 18.6632C37.5516 18.4105 37.5642 17.9053 37.5642 17.1474C37.5642 16.3895 37.5516 15.8842 37.5263 15.6316C37.4505 14.2674 37.1347 13.2442 36.579 12.5621C36.0484 11.88 35.24 11.539 34.1537 11.539C32.0568 11.539 30.9453 12.9032 30.819 15.6316L30.7811 17.1474L30.819 18.6632C30.8695 20.0526 31.16 21.0884 31.6905 21.7705C32.2463 22.4274 33.0674 22.7558 34.1537 22.7558ZM48.9451 27C48.6924 27 48.4651 26.9116 48.263 26.7347C48.0861 26.5326 47.9977 26.3053 47.9977 26.0526V1.04211C47.9977 0.764216 48.0861 0.536849 48.263 0.360007C48.4651 0.183165 48.6924 0.0947432 48.9451 0.0947432H53.3409C53.6187 0.0947432 53.8461 0.183165 54.023 0.360007C54.1998 0.536849 54.2882 0.764216 54.2882 1.04211V13.7368L59.5556 7.93895C59.6061 7.88843 59.6945 7.80001 59.8209 7.67369C59.9724 7.54737 60.124 7.45895 60.2756 7.40843C60.4272 7.33264 60.604 7.29474 60.8061 7.29474H65.884C66.1114 7.29474 66.3009 7.38316 66.4524 7.56001C66.6293 7.71158 66.7177 7.90106 66.7177 8.12843C66.7177 8.40632 66.6166 8.62106 66.4145 8.77264L59.5935 16.1242L67.3619 25.56C67.564 25.7621 67.6651 25.9516 67.6651 26.1284C67.6651 26.3811 67.5766 26.5958 67.3998 26.7726C67.2482 26.9242 67.0461 27 66.7935 27H61.6019C61.2735 27 61.0209 26.9495 60.844 26.8484C60.6924 26.7474 60.503 26.5832 60.2756 26.3558L54.2882 19.1558V26.0526C54.2882 26.3053 54.1998 26.5326 54.023 26.7347C53.8461 26.9116 53.6187 27 53.3409 27H48.9451ZM77.867 27.3789C75.8207 27.3789 74.1028 27.0884 72.7134 26.5074C71.3491 25.9263 70.3386 25.2316 69.6818 24.4232C69.0249 23.6147 68.6965 22.8947 68.6965 22.2632C68.6965 22.0105 68.7849 21.8084 68.9618 21.6568C69.1639 21.48 69.3786 21.3916 69.606 21.3916H73.926C74.0776 21.3916 74.2165 21.4547 74.3428 21.5811C74.646 21.7832 74.8734 21.9474 75.0249 22.0737C75.5807 22.4779 76.0607 22.7811 76.4649 22.9832C76.8944 23.16 77.4123 23.2484 78.0186 23.2484C78.7512 23.2484 79.3449 23.1095 79.7997 22.8316C80.2797 22.5284 80.5197 22.1116 80.5197 21.5811C80.5197 21.1516 80.3934 20.8105 80.1407 20.5579C79.9133 20.3053 79.4586 20.0653 78.7765 19.8379C78.0944 19.5853 77.0586 19.32 75.6691 19.0421C73.5723 18.6126 71.9555 17.9179 70.8186 16.9579C69.707 15.9726 69.1512 14.659 69.1512 13.0168C69.1512 11.9811 69.4797 10.9958 70.1365 10.0611C70.7934 9.12632 71.766 8.36843 73.0544 7.78737C74.3681 7.20632 75.9218 6.91579 77.7155 6.91579C79.5091 6.91579 81.0755 7.19369 82.4144 7.74948C83.7533 8.30527 84.7639 8.98737 85.446 9.79579C86.1533 10.579 86.507 11.299 86.507 11.9558C86.507 12.1832 86.4186 12.3853 86.2418 12.5621C86.0902 12.739 85.9007 12.8274 85.6733 12.8274H81.7323C81.5302 12.8274 81.3407 12.7642 81.1639 12.6379C80.8355 12.4611 80.5449 12.2716 80.2923 12.0695C79.8628 11.7411 79.4586 11.4884 79.0797 11.3116C78.7007 11.1347 78.2334 11.0463 77.6776 11.0463C77.0207 11.0463 76.4902 11.1979 76.086 11.5011C75.707 11.8042 75.5176 12.1958 75.5176 12.6758C75.5176 13.0547 75.6186 13.3705 75.8207 13.6232C76.0481 13.8758 76.5028 14.1284 77.1849 14.3811C77.8923 14.6084 78.9281 14.8484 80.2923 15.1011C82.7428 15.5305 84.5239 16.2884 85.6355 17.3747C86.7723 18.4611 87.3407 19.7368 87.3407 21.2021C87.3407 23.0716 86.507 24.5747 84.8397 25.7116C83.1723 26.8232 80.8481 27.3789 77.867 27.3789ZM100.672 27C95.4428 27 92.828 24.5116 92.828 19.5347V12.259H89.8723C89.5944 12.259 89.3544 12.1705 89.1523 11.9937C88.9754 11.8168 88.887 11.5895 88.887 11.3116V8.24211C88.887 7.96421 88.9754 7.73685 89.1523 7.56001C89.3544 7.38316 89.5944 7.29474 89.8723 7.29474H92.828V1.04211C92.828 0.764216 92.9165 0.536849 93.0933 0.360007C93.2954 0.183165 93.5228 0.0947432 93.7754 0.0947432H98.1712C98.4491 0.0947432 98.6765 0.183165 98.8533 0.360007C99.0301 0.536849 99.1186 0.764216 99.1186 1.04211V7.29474H103.855C104.133 7.29474 104.361 7.38316 104.538 7.56001C104.74 7.73685 104.841 7.96421 104.841 8.24211V11.3116C104.841 11.5895 104.74 11.8168 104.538 11.9937C104.361 12.1705 104.133 12.259 103.855 12.259H99.1186V19.0042C99.1186 20.8737 99.8386 21.8084 101.279 21.8084H104.196C104.474 21.8084 104.702 21.8968 104.879 22.0737C105.055 22.2505 105.144 22.4779 105.144 22.7558V26.0526C105.144 26.3053 105.055 26.5326 104.879 26.7347C104.702 26.9116 104.474 27 104.196 27H100.672ZM117.376 27.3789C114.345 27.3789 111.957 26.5579 110.214 24.9158C108.471 23.2737 107.561 20.8863 107.486 17.7537V16.4274C107.587 13.4463 108.509 11.1221 110.252 9.45474C112.02 7.76211 114.382 6.91579 117.338 6.91579C119.486 6.91579 121.292 7.3579 122.757 8.24211C124.248 9.10106 125.359 10.2884 126.092 11.8042C126.85 13.32 127.229 15.0632 127.229 17.0337V17.9432C127.229 18.1958 127.14 18.4232 126.963 18.6253C126.787 18.8021 126.559 18.8905 126.281 18.8905H114.155V19.1558C114.206 20.3432 114.496 21.3032 115.027 22.0358C115.557 22.7684 116.328 23.1347 117.338 23.1347C117.97 23.1347 118.488 23.0084 118.892 22.7558C119.296 22.4779 119.662 22.1495 119.991 21.7705C120.218 21.4926 120.395 21.3284 120.521 21.2779C120.673 21.2021 120.9 21.1642 121.203 21.1642H125.902C126.13 21.1642 126.319 21.24 126.471 21.3916C126.648 21.5179 126.736 21.6947 126.736 21.9221C126.736 22.5789 126.357 23.3368 125.599 24.1958C124.867 25.0547 123.793 25.8 122.378 26.4316C120.963 27.0632 119.296 27.3789 117.376 27.3789ZM120.559 15.1389V15.0632C120.559 13.8253 120.269 12.8526 119.688 12.1453C119.132 11.4126 118.349 11.0463 117.338 11.0463C116.353 11.0463 115.57 11.4126 114.989 12.1453C114.433 12.8526 114.155 13.8253 114.155 15.0632V15.1389H120.559ZM131.729 34.2C131.476 34.2 131.249 34.1116 131.047 33.9347C130.87 33.7579 130.781 33.5305 130.781 33.2526V8.24211C130.781 7.96421 130.87 7.73685 131.047 7.56001C131.249 7.38316 131.476 7.29474 131.729 7.29474H136.011C136.289 7.29474 136.516 7.38316 136.693 7.56001C136.87 7.73685 136.958 7.96421 136.958 8.24211V9.60632C138.322 7.81264 140.28 6.91579 142.832 6.91579C145.308 6.91579 147.24 7.68632 148.63 9.22737C150.019 10.7684 150.777 12.9411 150.903 15.7453C150.929 16.0737 150.941 16.5411 150.941 17.1474C150.941 17.7537 150.929 18.2211 150.903 18.5495C150.802 21.2779 150.045 23.4379 148.63 25.0295C147.215 26.5958 145.282 27.3789 142.832 27.3789C140.356 27.3789 138.512 26.5326 137.299 24.84V33.2526C137.299 33.5305 137.211 33.7579 137.034 33.9347C136.857 34.1116 136.63 34.2 136.352 34.2H131.729ZM140.786 22.3011C141.973 22.3011 142.819 21.9474 143.325 21.24C143.855 20.5326 144.158 19.56 144.234 18.3221C144.285 17.8168 144.31 17.4253 144.31 17.1474C144.31 16.8695 144.285 16.4779 144.234 15.9726C144.158 14.7347 143.855 13.7621 143.325 13.0547C142.819 12.3474 141.973 11.9937 140.786 11.9937C139.624 11.9937 138.765 12.36 138.209 13.0926C137.678 13.8 137.375 14.7221 137.299 15.859L137.261 17.2611L137.299 18.7011C137.35 19.7368 137.666 20.5958 138.247 21.2779C138.828 21.96 139.674 22.3011 140.786 22.3011Z" fill="black"/>
</svg>
