<svg width="17" height="16" viewBox="0 0 17 16" fill="none" xmlns="http://www.w3.org/2000/svg">
<mask id="path-1-inside-1" fill="white">
<path d="M16.4297 7.81057C16.4297 9.67892 15.7582 11.485 14.5375 12.8995C13.3168 14.314 11.6284 15.2425 9.78017 15.5159C7.93193 15.7892 6.04701 15.3891 4.46918 14.3885C2.89136 13.3879 1.72576 11.8535 1.18498 10.0651C0.644193 8.27672 0.764251 6.35354 1.52325 4.64631C2.28226 2.93908 3.62964 1.56155 5.31965 0.764946C7.00967 -0.0316535 8.92972 -0.194242 10.7296 0.306833C12.5295 0.807908 14.0894 1.93926 15.1246 3.49455L8.64065 7.81057L16.4297 7.81057Z"/>
</mask>
<path d="M16.4297 7.81057C16.4297 9.67892 15.7582 11.485 14.5375 12.8995C13.3168 14.314 11.6284 15.2425 9.78017 15.5159C7.93193 15.7892 6.04701 15.3891 4.46918 14.3885C2.89136 13.3879 1.72576 11.8535 1.18498 10.0651C0.644193 8.27672 0.764251 6.35354 1.52325 4.64631C2.28226 2.93908 3.62964 1.56155 5.31965 0.764946C7.00967 -0.0316535 8.92972 -0.194242 10.7296 0.306833C12.5295 0.807908 14.0894 1.93926 15.1246 3.49455L8.64065 7.81057L16.4297 7.81057Z" stroke="white" stroke-width="1.83273" mask="url(#path-1-inside-1)"/>
</svg>
