<svg width="251" height="258" viewBox="0 0 251 258" fill="none" xmlns="http://www.w3.org/2000/svg">
<mask id="path-1-inside-1" fill="white">
<path d="M125.5 -5.6389e-06C98.4403 -4.42307e-06 72.1054 8.98993 50.4219 25.6293C28.7383 42.2688 12.8677 65.6664 5.17635 92.3335C-2.515 119.001 -1.61507 147.509 7.74195 173.607C17.099 199.706 34.4119 221.997 57.0992 237.156C79.7865 252.316 106.633 259.532 133.636 257.729C160.639 255.926 186.351 245.2 206.94 227.15C227.528 209.101 241.89 184.695 247.883 157.572C253.876 130.448 251.18 102.06 240.197 76.6398L225.122 83.5216C234.662 105.601 237.004 130.258 231.798 153.816C226.593 177.375 214.118 198.573 196.236 214.25C178.353 229.927 156.02 239.244 132.567 240.81C109.113 242.376 85.7947 236.108 66.0892 222.941C46.3836 209.774 31.3462 190.413 23.219 167.744C15.0918 145.076 14.3101 120.315 20.9906 97.1526C27.671 73.9904 41.4558 53.6679 60.2894 39.2154C79.1231 24.7629 101.997 16.9546 125.5 16.9546L125.5 -5.6389e-06Z"/>
</mask>
<path d="M125.5 -5.6389e-06C98.4403 -4.42307e-06 72.1054 8.98993 50.4219 25.6293C28.7383 42.2688 12.8677 65.6664 5.17635 92.3335C-2.515 119.001 -1.61507 147.509 7.74195 173.607C17.099 199.706 34.4119 221.997 57.0992 237.156C79.7865 252.316 106.633 259.532 133.636 257.729C160.639 255.926 186.351 245.2 206.94 227.15C227.528 209.101 241.89 184.695 247.883 157.572C253.876 130.448 251.18 102.06 240.197 76.6398L225.122 83.5216C234.662 105.601 237.004 130.258 231.798 153.816C226.593 177.375 214.118 198.573 196.236 214.25C178.353 229.927 156.02 239.244 132.567 240.81C109.113 242.376 85.7947 236.108 66.0892 222.941C46.3836 209.774 31.3462 190.413 23.219 167.744C15.0918 145.076 14.3101 120.315 20.9906 97.1526C27.671 73.9904 41.4558 53.6679 60.2894 39.2154C79.1231 24.7629 101.997 16.9546 125.5 16.9546L125.5 -5.6389e-06Z" stroke="#C2C2C2" stroke-width="28.5635" mask="url(#path-1-inside-1)"/>
</svg>
