<svg width="16" height="16" viewBox="0 0 16 16" fill="none" xmlns="http://www.w3.org/2000/svg">
<mask id="path-1-inside-1" fill="white">
<path d="M15.5782 7.81057C15.5782 9.67892 14.9066 11.485 13.6859 12.8995C12.4653 14.314 10.7769 15.2425 8.92861 15.5159C7.08036 15.7892 5.19544 15.3891 3.61762 14.3885C2.0398 13.3879 0.874201 11.8535 0.333416 10.0651C-0.207369 8.27672 -0.0873117 6.35354 0.671692 4.64631C1.4307 2.93908 2.77807 1.56155 4.46809 0.764946C6.15811 -0.0316535 8.07816 -0.194242 9.87806 0.306833C11.678 0.807908 13.2378 1.93926 14.2731 3.49455L7.78909 7.81057L15.5782 7.81057Z"/>
</mask>
<path d="M15.5782 7.81057C15.5782 9.67892 14.9066 11.485 13.6859 12.8995C12.4653 14.314 10.7769 15.2425 8.92861 15.5159C7.08036 15.7892 5.19544 15.3891 3.61762 14.3885C2.0398 13.3879 0.874201 11.8535 0.333416 10.0651C-0.207369 8.27672 -0.0873117 6.35354 0.671692 4.64631C1.4307 2.93908 2.77807 1.56155 4.46809 0.764946C6.15811 -0.0316535 8.07816 -0.194242 9.87806 0.306833C11.678 0.807908 13.2378 1.93926 14.2731 3.49455L7.78909 7.81057L15.5782 7.81057Z" stroke="white" stroke-width="1.83273" mask="url(#path-1-inside-1)"/>
</svg>
