<svg width="16" height="16" viewBox="0 0 16 16" fill="none" xmlns="http://www.w3.org/2000/svg">
<mask id="path-1-inside-1" fill="white">
<path d="M15.5782 7.81057C15.5782 9.63877 14.9351 11.4087 13.7616 12.8105C12.588 14.2123 10.9588 15.1567 9.1591 15.4782C7.3594 15.7998 5.50395 15.4781 3.91758 14.5694C2.33121 13.6607 1.11502 12.2229 0.481933 10.5079C-0.151153 8.79279 -0.16079 6.90967 0.454711 5.18821C1.07021 3.46674 2.27163 2.01663 3.84861 1.09175C5.4256 0.166877 7.27766 -0.173826 9.08055 0.129295C10.8834 0.432415 12.5223 1.36004 13.7101 2.74977L7.78909 7.81057L15.5782 7.81057Z"/>
</mask>
<path d="M15.5782 7.81057C15.5782 9.63877 14.9351 11.4087 13.7616 12.8105C12.588 14.2123 10.9588 15.1567 9.1591 15.4782C7.3594 15.7998 5.50395 15.4781 3.91758 14.5694C2.33121 13.6607 1.11502 12.2229 0.481933 10.5079C-0.151153 8.79279 -0.16079 6.90967 0.454711 5.18821C1.07021 3.46674 2.27163 2.01663 3.84861 1.09175C5.4256 0.166877 7.27766 -0.173826 9.08055 0.129295C10.8834 0.432415 12.5223 1.36004 13.7101 2.74977L7.78909 7.81057L15.5782 7.81057Z" stroke="white" stroke-width="1.83273" mask="url(#path-1-inside-1)"/>
</svg>
