<svg width="43" height="76" viewBox="0 0 43 76" fill="none" xmlns="http://www.w3.org/2000/svg">
<mask id="path-1-inside-1" fill="white">
<path d="M-3.74215e-06 5.69734e-06C8.50459 5.31522e-06 16.8182 2.58056 23.8895 7.41534C30.9608 12.2501 36.4722 19.122 39.7268 27.1619C42.9814 35.2019 43.8329 44.0488 42.1738 52.584C40.5146 61.1191 36.4192 68.9592 30.4056 75.1127L26.4094 71.0235C31.6326 65.6788 35.1897 58.8692 36.6308 51.4558C38.0719 44.0424 37.3323 36.3582 34.5055 29.375C31.6787 22.3917 26.8916 16.423 20.7497 12.2237C14.6078 8.02435 7.38683 5.78296 -3.49623e-06 5.78296L-3.74215e-06 5.69734e-06Z"/>
</mask>
<path d="M-3.74215e-06 5.69734e-06C8.50459 5.31522e-06 16.8182 2.58056 23.8895 7.41534C30.9608 12.2501 36.4722 19.122 39.7268 27.1619C42.9814 35.2019 43.8329 44.0488 42.1738 52.584C40.5146 61.1191 36.4192 68.9592 30.4056 75.1127L26.4094 71.0235C31.6326 65.6788 35.1897 58.8692 36.6308 51.4558C38.0719 44.0424 37.3323 36.3582 34.5055 29.375C31.6787 22.3917 26.8916 16.423 20.7497 12.2237C14.6078 8.02435 7.38683 5.78296 -3.49623e-06 5.78296L-3.74215e-06 5.69734e-06Z" stroke="white" stroke-width="28.5635" mask="url(#path-1-inside-1)"/>
</svg>
