<svg width="30" height="21" viewBox="0 0 30 21" fill="none" xmlns="http://www.w3.org/2000/svg">
<mask id="path-1-inside-1" fill="white">
<path d="M29.051 18.8317C28.3787 15.7527 27.0772 12.8458 25.2282 10.2936C23.3792 7.74145 21.0226 5.59903 18.3063 4.00085C15.5899 2.40267 12.5726 1.38323 9.44361 1.00653C6.31462 0.629822 3.14154 0.903984 0.123529 1.8118L2.16336 8.59315C4.24674 7.96646 6.43718 7.7772 8.59717 8.03725C10.7572 8.29729 12.8401 9.00103 14.7152 10.1043C16.5903 11.2075 18.2171 12.6865 19.4935 14.4483C20.7699 16.2101 21.6684 18.2168 22.1325 20.3423L29.051 18.8317Z"/>
</mask>
<path d="M29.051 18.8317C28.3787 15.7527 27.0772 12.8458 25.2282 10.2936C23.3792 7.74145 21.0226 5.59903 18.3063 4.00085C15.5899 2.40267 12.5726 1.38323 9.44361 1.00653C6.31462 0.629822 3.14154 0.903984 0.123529 1.8118L2.16336 8.59315C4.24674 7.96646 6.43718 7.7772 8.59717 8.03725C10.7572 8.29729 12.8401 9.00103 14.7152 10.1043C16.5903 11.2075 18.2171 12.6865 19.4935 14.4483C20.7699 16.2101 21.6684 18.2168 22.1325 20.3423L29.051 18.8317Z" stroke="white" stroke-width="12.4966" mask="url(#path-1-inside-1)"/>
</svg>
