<svg width="294" height="302" viewBox="0 0 294 302" fill="none" xmlns="http://www.w3.org/2000/svg">
<mask id="path-1-inside-1" fill="white">
<path d="M146.798 0.00017651C115.146 0.000177932 84.3421 10.5157 58.9787 29.979C33.6154 49.4422 15.0514 76.8105 6.05481 108.003C-2.94181 139.196 -1.88916 172.542 9.0558 203.069C20.0008 233.597 40.2517 259.671 66.7893 277.403C93.3268 295.135 124.729 303.576 156.315 301.467C187.9 299.358 217.976 286.812 242.058 265.699C266.141 244.587 282.94 216.039 289.95 184.313C296.961 152.586 293.807 119.38 280.96 89.6462L263.327 97.6958C274.486 123.522 277.225 152.363 271.136 179.92C265.047 207.477 250.456 232.272 229.538 250.61C208.621 268.948 182.498 279.845 155.064 281.677C127.63 283.509 100.355 276.177 77.3049 260.775C54.2552 245.374 36.6658 222.727 27.1594 196.212C17.6529 169.696 16.7386 140.733 24.5528 113.64C32.367 86.5471 48.4911 62.7758 70.5209 45.8707C92.5507 28.9655 119.306 19.832 146.798 19.832L146.798 0.00017651Z"/>
</mask>
<path d="M146.798 0.00017651C115.146 0.000177932 84.3421 10.5157 58.9787 29.979C33.6154 49.4422 15.0514 76.8105 6.05481 108.003C-2.94181 139.196 -1.88916 172.542 9.0558 203.069C20.0008 233.597 40.2517 259.671 66.7893 277.403C93.3268 295.135 124.729 303.576 156.315 301.467C187.9 299.358 217.976 286.812 242.058 265.699C266.141 244.587 282.94 216.039 289.95 184.313C296.961 152.586 293.807 119.38 280.96 89.6462L263.327 97.6958C274.486 123.522 277.225 152.363 271.136 179.92C265.047 207.477 250.456 232.272 229.538 250.61C208.621 268.948 182.498 279.845 155.064 281.677C127.63 283.509 100.355 276.177 77.3049 260.775C54.2552 245.374 36.6658 222.727 27.1594 196.212C17.6529 169.696 16.7386 140.733 24.5528 113.64C32.367 86.5471 48.4911 62.7758 70.5209 45.8707C92.5507 28.9655 119.306 19.832 146.798 19.832L146.798 0.00017651Z" stroke="#C2C2C2" stroke-width="33.4109" mask="url(#path-1-inside-1)"/>
</svg>
