<svg width="12" height="11" viewBox="0 0 12 11" fill="none" xmlns="http://www.w3.org/2000/svg">
<path d="M4.93768 0.815877C5.23239 -0.0911503 6.51559 -0.0911502 6.81031 0.815877L7.36597 2.52603C7.49777 2.93167 7.87577 3.2063 8.30228 3.2063H10.1004C11.0541 3.2063 11.4507 4.4267 10.6791 4.98727L9.22437 6.04421C8.87932 6.2949 8.73493 6.73927 8.86673 7.14491L9.42239 8.85506C9.71711 9.76209 8.67897 10.5163 7.90741 9.95576L6.45267 8.89883C6.10761 8.64814 5.64037 8.64814 5.29532 8.89883L3.84058 9.95576C3.06901 10.5163 2.03088 9.76209 2.32559 8.85506L2.88125 7.14491C3.01305 6.73927 2.86867 6.2949 2.52361 6.04421L1.06887 4.98727C0.297306 4.4267 0.693837 3.2063 1.64754 3.2063H3.4457C3.87221 3.2063 4.25022 2.93167 4.38202 2.52603L4.93768 0.815877Z" fill="#353535"/>
</svg>
