<svg width="11" height="11" viewBox="0 0 11 11" fill="none" xmlns="http://www.w3.org/2000/svg">
<path d="M4.69354 0.881673C4.98825 -0.0253544 6.27145 -0.0253543 6.56616 0.881673L7.12183 2.59183C7.25363 2.99746 7.63163 3.2721 8.05814 3.2721H9.8563C10.81 3.2721 11.2065 4.4925 10.435 5.05307L8.98023 6.11C8.63518 6.3607 8.49079 6.80507 8.62259 7.21071L9.17825 8.92086C9.47297 9.82789 8.43483 10.5821 7.66327 10.0216L6.20852 8.96463C5.86347 8.71393 5.39623 8.71393 5.05118 8.96463L3.59644 10.0216C2.82487 10.5821 1.78674 9.82789 2.08145 8.92086L2.63711 7.21071C2.76891 6.80507 2.62453 6.3607 2.27947 6.11L0.824729 5.05307C0.0531656 4.4925 0.449697 3.2721 1.4034 3.2721H3.20156C3.62807 3.2721 4.00608 2.99746 4.13788 2.59183L4.69354 0.881673Z" fill="#353535"/>
</svg>
