<svg width="11" height="10" viewBox="0 0 11 10" fill="none" xmlns="http://www.w3.org/2000/svg">
<path d="M4.56369 0.881674C4.8584 -0.0253534 6.1416 -0.0253545 6.43631 0.881673L6.96282 2.5021C7.09462 2.90774 7.47262 3.18237 7.89913 3.18237H9.60295C10.5567 3.18237 10.9532 4.40277 10.1816 4.96334L8.80321 5.96482C8.45815 6.21552 8.31377 6.65989 8.44557 7.06553L8.97208 8.68595C9.26679 9.59298 8.22866 10.3472 7.45709 9.78666L6.07867 8.78518C5.73362 8.53448 5.26638 8.53448 4.92133 8.78518L3.54291 9.78665C2.77135 10.3472 1.73321 9.59298 2.02792 8.68595L2.55443 7.06553C2.68623 6.65989 2.54185 6.21552 2.19679 5.96482L0.818375 4.96335C0.046811 4.40277 0.443342 3.18237 1.39705 3.18237H3.10087C3.52738 3.18237 3.90538 2.90774 4.03718 2.5021L4.56369 0.881674Z" fill="#353535"/>
</svg>
