<svg width="12" height="11" viewBox="0 0 12 11" fill="none" xmlns="http://www.w3.org/2000/svg">
<path d="M4.93768 0.815999C5.23239 -0.0910282 6.51559 -0.0910281 6.81031 0.816L7.36597 2.52615C7.49777 2.93179 7.87577 3.20642 8.30228 3.20642H10.1004C11.0541 3.20642 11.4507 4.42682 10.6791 4.9874L9.22437 6.04433C8.87932 6.29503 8.73493 6.7394 8.86673 7.14503L9.42239 8.85519C9.71711 9.76221 8.67897 10.5165 7.90741 9.95589L6.45267 8.89895C6.10761 8.64826 5.64037 8.64826 5.29532 8.89895L3.84058 9.95589C3.06901 10.5165 2.03088 9.76221 2.32559 8.85519L2.88125 7.14503C3.01305 6.7394 2.86867 6.29503 2.52361 6.04433L1.06887 4.9874C0.297306 4.42682 0.693837 3.20642 1.64754 3.20642H3.4457C3.87221 3.20642 4.25022 2.93179 4.38202 2.52615L4.93768 0.815999Z" fill="#353535"/>
</svg>
