<svg width="11" height="11" viewBox="0 0 11 11" fill="none" xmlns="http://www.w3.org/2000/svg">
<path d="M4.69305 0.881673C4.98776 -0.0253544 6.27097 -0.0253543 6.56568 0.881673L7.12134 2.59183C7.25314 2.99746 7.63114 3.2721 8.05765 3.2721H9.85581C10.8095 3.2721 11.2061 4.4925 10.4345 5.05307L8.97974 6.11C8.63469 6.3607 8.4903 6.80507 8.6221 7.21071L9.17777 8.92086C9.47248 9.82789 8.43434 10.5821 7.66278 10.0216L6.20804 8.96463C5.86298 8.71393 5.39575 8.71393 5.05069 8.96463L3.59595 10.0216C2.82438 10.5821 1.78625 9.82789 2.08096 8.92086L2.63662 7.21071C2.76842 6.80507 2.62404 6.3607 2.27899 6.11L0.824241 5.05307C0.0526773 4.4925 0.449208 3.2721 1.40291 3.2721H3.20108C3.62759 3.2721 4.00559 2.99746 4.13739 2.59183L4.69305 0.881673Z" fill="#353535"/>
</svg>
