<svg width="13" height="13" viewBox="0 0 13 13" fill="none" xmlns="http://www.w3.org/2000/svg">
<path d="M5.38138 1.61776C5.67609 0.710731 6.95929 0.710729 7.254 1.61776L8.04116 4.04038C8.17296 4.44602 8.55096 4.72065 8.97747 4.72065H11.5248C12.4785 4.72065 12.875 5.94105 12.1034 6.50162L10.0426 7.99889C9.69758 8.24959 9.5532 8.69396 9.685 9.09959L10.4722 11.5222C10.7669 12.4292 9.72873 13.1835 8.95717 12.6229L6.89636 11.1257C6.55131 10.875 6.08407 10.875 5.73902 11.1257L3.67821 12.6229C2.90664 13.1835 1.86851 12.4292 2.16322 11.5222L2.95038 9.09959C3.08218 8.69396 2.93779 8.24959 2.59274 7.99889L0.531934 6.50163C-0.23963 5.94105 0.1569 4.72065 1.11061 4.72065H3.6579C4.08441 4.72065 4.46242 4.44602 4.59422 4.04038L5.38138 1.61776Z" fill="#353535"/>
</svg>
