<svg width="24" height="25" viewBox="0 0 24 25" fill="none" xmlns="http://www.w3.org/2000/svg">
<path d="M23.5547 24.5361C23.2578 24.8454 22.9023 25 22.4883 25C22.0742 25 21.7188 24.8454 21.4219 24.5361L16.7812 19.7021C14.9062 21.1507 12.8125 21.875 10.5 21.875C9.07812 21.875 7.71875 21.5861 6.42188 21.0083C5.125 20.4305 4.00781 19.6533 3.07031 18.6768C2.13281 17.7002 1.38672 16.5365 0.832031 15.1855C0.277344 13.8346 0 12.4186 0 10.9375C0 9.45638 0.277344 8.04036 0.832031 6.68945C1.38672 5.33854 2.13281 4.1748 3.07031 3.19824C4.00781 2.22168 5.125 1.4445 6.42188 0.866699C7.71875 0.2889 9.07812 0 10.5 0C11.9219 0 13.2813 0.2889 14.5781 0.866699C15.875 1.4445 16.9922 2.22168 17.9297 3.19824C18.8672 4.1748 19.6133 5.33854 20.168 6.68945C20.7227 8.04036 21 9.45638 21 10.9375C21 13.3464 20.3047 15.5273 18.9141 17.4805L23.5547 22.3145C23.8516 22.6237 24 22.994 24 23.4253C24 23.8566 23.8516 24.2269 23.5547 24.5361ZM10.5 3.125C9.14062 3.125 7.88672 3.47493 6.73828 4.1748C5.58984 4.87467 4.67969 5.82275 4.00781 7.01904C3.33594 8.21533 3 9.52148 3 10.9375C3 12.9069 3.63281 14.6322 4.89844 16.1133C5.77344 15.5762 6.89062 15.2018 8.25 14.9902V14.2334C6.75 13.2894 6 11.3363 6 8.37402C6 7.1696 6.42188 6.25407 7.26562 5.62744C8.10938 5.00081 9.19141 4.6875 10.5117 4.6875C11.832 4.6875 12.9102 5.00081 13.7461 5.62744C14.582 6.25407 15 7.1696 15 8.37402C15 11.4665 14.25 13.444 12.75 14.3066V14.9902C14.1094 15.1855 15.2344 15.5599 16.125 16.1133C17.375 14.6322 18 12.9069 18 10.9375C18 9.52148 17.6641 8.21533 16.9922 7.01904C16.3203 5.82275 15.4102 4.87467 14.2617 4.1748C13.1133 3.47493 11.8594 3.125 10.5 3.125Z" fill="#636363"/>
</svg>
