<svg width="35" height="35" viewBox="0 0 35 35" fill="none" xmlns="http://www.w3.org/2000/svg">
<path fill-rule="evenodd" clip-rule="evenodd" d="M10.4032 0.1045C12.2605 0.019 12.8527 0 17.5837 0C22.3147 0 22.9068 0.0205833 24.7625 0.1045C26.6182 0.188417 27.8848 0.4845 28.9932 0.913583C30.1537 1.35217 31.2067 2.03775 32.0775 2.92442C32.9642 3.79367 33.6482 4.845 34.0852 6.00717C34.5158 7.1155 34.8103 8.38217 34.8958 10.2347C34.9813 12.0951 35.0003 12.6872 35.0003 17.4167C35.0003 22.1477 34.9797 22.7398 34.8958 24.5971C34.8119 26.4496 34.5158 27.7162 34.0852 28.8246C33.6481 29.9869 32.963 31.04 32.0775 31.9105C31.2067 32.7972 30.1537 33.4812 28.9932 33.9182C27.8848 34.3488 26.6182 34.6433 24.7657 34.7288C22.9068 34.8143 22.3147 34.8333 17.5837 34.8333C12.8527 34.8333 12.2605 34.8127 10.4032 34.7288C8.55074 34.6449 7.28408 34.3488 6.17574 33.9182C5.01345 33.4811 3.96037 32.796 3.08983 31.9105C2.20376 31.0407 1.51807 29.9881 1.08058 28.8262C0.651492 27.7178 0.356992 26.4512 0.271492 24.5987C0.185992 22.7382 0.166992 22.1461 0.166992 17.4167C0.166992 12.6857 0.187575 12.0935 0.271492 10.2378C0.355409 8.38217 0.651492 7.1155 1.08058 6.00717C1.51872 4.84513 2.20493 3.79258 3.09141 2.92283C3.96072 2.03696 5.01274 1.35129 6.17416 0.913583C7.28249 0.4845 8.54916 0.19 10.4017 0.1045H10.4032ZM24.6216 3.2395C22.7849 3.15558 22.2339 3.13817 17.5837 3.13817C12.9334 3.13817 12.3824 3.15558 10.5457 3.2395C8.84682 3.31708 7.92533 3.6005 7.31099 3.83958C6.49874 4.15625 5.91766 4.5315 5.30808 5.14108C4.73023 5.70325 4.28553 6.38761 4.00658 7.144C3.76749 7.75833 3.48408 8.67983 3.40649 10.3787C3.32258 12.2154 3.30516 12.7664 3.30516 17.4167C3.30516 22.0669 3.32258 22.6179 3.40649 24.4546C3.48408 26.1535 3.76749 27.075 4.00658 27.6893C4.28524 28.4446 4.73016 29.1302 5.30808 29.6922C5.87016 30.2702 6.55574 30.7151 7.31099 30.9937C7.92533 31.2328 8.84682 31.5162 10.5457 31.5938C12.3824 31.6777 12.9318 31.6952 17.5837 31.6952C22.2355 31.6952 22.7849 31.6777 24.6216 31.5938C26.3205 31.5162 27.242 31.2328 27.8563 30.9937C28.6686 30.6771 29.2497 30.3018 29.8592 29.6922C30.4372 29.1302 30.8821 28.4446 31.1607 27.6893C31.3998 27.075 31.6832 26.1535 31.7608 24.4546C31.8447 22.6179 31.8622 22.0669 31.8622 17.4167C31.8622 12.7664 31.8447 12.2154 31.7608 10.3787C31.6832 8.67983 31.3998 7.75833 31.1607 7.144C30.8441 6.33175 30.4688 5.75067 29.8592 5.14108C29.297 4.56328 28.6127 4.11858 27.8563 3.83958C27.242 3.6005 26.3205 3.31708 24.6216 3.2395V3.2395ZM15.3591 22.7857C16.6015 23.3029 17.9848 23.3727 19.273 22.9832C20.5611 22.5937 21.674 21.7691 22.4217 20.6502C23.1694 19.5313 23.5054 18.1875 23.3724 16.8484C23.2394 15.5093 22.6456 14.2579 21.6924 13.3079C21.0848 12.7007 20.3501 12.2357 19.5412 11.9465C18.7323 11.6573 17.8693 11.551 17.0144 11.6353C16.1595 11.7196 15.334 11.9924 14.5972 12.4341C13.8604 12.8758 13.2307 13.4753 12.7534 14.1896C12.2761 14.9038 11.9631 15.715 11.837 16.5648C11.7108 17.4145 11.7746 18.2816 12.0238 19.1037C12.273 19.9258 12.7014 20.6825 13.2781 21.3191C13.8548 21.9558 14.5655 22.4567 15.3591 22.7857ZM11.2535 11.0865C12.0848 10.2552 13.0717 9.5958 14.1578 9.14591C15.2439 8.69601 16.408 8.46446 17.5837 8.46446C18.7593 8.46446 19.9234 8.69601 21.0095 9.1459C22.0957 9.59579 23.0825 10.2552 23.9138 11.0865C24.7451 11.9178 25.4045 12.9047 25.8544 13.9908C26.3043 15.0769 26.5359 16.241 26.5359 17.4167C26.5359 18.5923 26.3043 19.7564 25.8544 20.8425C25.4045 21.9287 24.7451 22.9155 23.9138 23.7468C22.235 25.4257 19.9579 26.3689 17.5837 26.3689C15.2094 26.3689 12.9324 25.4257 11.2535 23.7468C9.57463 22.068 8.63145 19.7909 8.63145 17.4167C8.63145 15.0424 9.57463 12.7654 11.2535 11.0865V11.0865ZM28.5213 9.79767C28.7273 9.60334 28.8922 9.36966 29.0063 9.11046C29.1204 8.85126 29.1813 8.5718 29.1854 8.28864C29.1895 8.00548 29.1368 7.72437 29.0303 7.46195C28.9239 7.19953 28.7658 6.96114 28.5656 6.76089C28.3653 6.56065 28.127 6.40262 27.8645 6.29615C27.6021 6.18969 27.321 6.13696 27.0379 6.14109C26.7547 6.14522 26.4752 6.20612 26.216 6.32019C25.9568 6.43425 25.7231 6.59917 25.5288 6.80517C25.1509 7.2058 24.944 7.73794 24.952 8.28864C24.96 8.83934 25.1824 9.36522 25.5718 9.75467C25.9613 10.1441 26.4872 10.3664 27.0379 10.3745C27.5885 10.3825 28.1207 10.1756 28.5213 9.79767V9.79767Z" fill="white"/>
</svg>
