<svg width="6" height="10" viewBox="0 0 6 10" fill="none" xmlns="http://www.w3.org/2000/svg">
<path d="M2 0.9375C2 0.788316 1.94074 0.645242 1.83525 0.539753C1.72976 0.434263 1.58668 0.375 1.4375 0.375C1.28832 0.375 1.14524 0.434263 1.03975 0.539753C0.934263 0.645242 0.875 0.788316 0.875 0.9375V7.125C0.875032 7.22415 0.90127 7.32153 0.951056 7.40727C1.00084 7.49301 1.07241 7.56407 1.1585 7.61325L5.096 9.86325C5.22522 9.93308 5.37662 9.94961 5.51786 9.90929C5.65909 9.86897 5.77896 9.775 5.85183 9.64747C5.9247 9.51995 5.9448 9.36898 5.90784 9.22682C5.87087 9.08467 5.77977 8.96262 5.654 8.88675L2 6.79875V0.9375Z" fill="#343434"/>
</svg>
