<svg width="18" height="19" viewBox="0 0 18 19" fill="none" xmlns="http://www.w3.org/2000/svg">
<path d="M9.37895 0.331787C6.76568 0.331787 4.63961 2.45785 4.63961 5.07112C4.63961 7.68439 6.76568 9.81046 9.37895 9.81046C11.9922 9.81046 14.1183 7.68439 14.1183 5.07112C14.1183 2.45785 11.9922 0.331787 9.37895 0.331787ZM9.37895 7.91472C7.81118 7.91472 6.53535 6.6389 6.53535 5.07112C6.53535 3.50335 7.81118 2.22752 9.37895 2.22752C10.9467 2.22752 12.2226 3.50335 12.2226 5.07112C12.2226 6.6389 10.9467 7.91472 9.37895 7.91472ZM17.9098 18.3413V17.3934C17.9098 13.7356 14.9325 10.7583 11.2747 10.7583H7.48322C3.82445 10.7583 0.848145 13.7356 0.848145 17.3934V18.3413H2.74388V17.3934C2.74388 14.7801 4.86995 12.6541 7.48322 12.6541H11.2747C13.888 12.6541 16.014 14.7801 16.014 17.3934V18.3413H17.9098Z" fill="white"/>
</svg>
