<svg width="24" height="28" viewBox="0 0 24 28" fill="none" xmlns="http://www.w3.org/2000/svg">
<path d="M19.7656 14.9632C19.7526 12.7586 20.7515 11.0971 22.7685 9.87204C21.6404 8.2558 19.9337 7.36687 17.6839 7.19555C15.5537 7.02746 13.223 8.43682 12.3697 8.43682C11.4678 8.43682 9.4055 7.25374 7.78279 7.25374C4.43395 7.30545 0.875 9.92376 0.875 15.2509C0.875 16.8251 1.16269 18.451 1.73807 20.1254C2.5074 22.33 5.28086 27.7314 8.17392 27.6442C9.68672 27.6086 10.7567 26.571 12.7252 26.571C14.6356 26.571 15.6248 27.6442 17.3121 27.6442C20.231 27.6021 22.7394 22.692 23.47 20.481C19.5555 18.6353 19.7656 15.0763 19.7656 14.9632ZM19.4229 23.5939C18.9607 24.2371 18.4952 24.7446 18.0685 25.0711C17.7291 25.3297 17.4673 25.4396 17.2927 25.4461C17.0018 25.4429 16.7206 25.3717 16.1711 25.1616C16.1323 25.1455 16.0902 25.1293 16.0353 25.1099L15.8931 25.055C15.3306 24.8384 14.9944 24.722 14.5645 24.6089C13.9633 24.4537 13.3653 24.3697 12.7252 24.3697C12.0723 24.3697 11.4581 24.4505 10.8472 24.6024C10.3979 24.7156 10.0197 24.8416 9.46691 25.0485C9.44428 25.0582 9.20508 25.1487 9.1372 25.1746C9.02406 25.2166 8.93679 25.2489 8.85597 25.278C8.5198 25.3944 8.30645 25.4429 8.11574 25.4461C8.09311 25.4461 8.07372 25.4429 8.05755 25.4396C8.022 25.4332 7.97674 25.4202 7.92502 25.3976C7.77956 25.3394 7.60501 25.2327 7.40783 25.0808C6.95528 24.7285 6.45748 24.1757 5.94998 23.4678C5.06105 22.2201 4.22061 20.5651 3.81655 19.4046C3.31875 17.9565 3.07308 16.5697 3.07308 15.2476C3.07308 13.3017 3.64846 11.8212 4.6376 10.8159C5.48774 9.95608 6.63203 9.47444 7.79896 9.44858C7.98967 9.45182 8.26766 9.49707 8.62 9.59405C8.898 9.66839 9.20185 9.7686 9.61237 9.91406C9.73521 9.95931 10.1587 10.1112 10.2104 10.1306C10.4593 10.2211 10.6468 10.2858 10.831 10.344C11.4193 10.5315 11.8751 10.6349 12.3697 10.6349C12.8707 10.6349 13.3006 10.5282 13.9116 10.3181C14.1411 10.2405 14.975 9.93022 15.1237 9.8785C15.9513 9.58435 16.5622 9.42596 17.0891 9.38717C17.2442 9.37424 17.3832 9.37424 17.5158 9.38393C18.2495 9.44212 18.8766 9.58758 19.41 9.83002C18.1946 11.2329 17.5675 12.9494 17.5707 14.9503C17.561 15.4254 17.5998 15.9749 17.7356 16.6247C17.9425 17.6106 18.3368 18.5868 18.9607 19.5016C19.4359 20.1966 20.0242 20.8237 20.7288 21.3699C20.3571 22.136 19.9013 22.928 19.4229 23.5939ZM16.3682 5.10414C18.0071 3.15819 17.8584 1.3868 17.8099 0.75C16.3618 0.834044 14.6874 1.7359 13.7338 2.84464C12.6832 4.03419 12.0658 5.50497 12.1984 7.16323C13.7629 7.28283 15.1916 6.47794 16.3682 5.10414Z" fill="white"/>
</svg>
