<svg width="13" height="23" viewBox="0 0 13 23" fill="none" xmlns="http://www.w3.org/2000/svg">
<path d="M7.47879 0C6.61207 0.00353282 5.78183 0.358052 5.16896 0.986316C4.55609 1.61458 4.21026 2.46567 4.20682 3.35417C4.20682 5.19608 5.68201 6.70833 7.47879 6.70833C9.27556 6.70833 10.7508 5.19608 10.7508 3.35417C10.7508 1.51225 9.27556 0 7.47879 0ZM7.47879 1.91667C8.26406 1.91667 8.88106 2.54917 8.88106 3.35417C8.88106 4.15917 8.26406 4.79167 7.47879 4.79167C6.69351 4.79167 6.07651 4.15917 6.07651 3.35417C6.07651 2.54917 6.69351 1.91667 7.47879 1.91667ZM4.03107 6.94792C3.54962 6.98912 3.09996 7.22583 2.77556 7.60725L1.08068 9.61208C0.854889 9.875 0.703304 10.1961 0.642241 10.5407L0 14.2552L1.84072 14.5849L2.48296 10.8713L4.17784 8.86458H4.20682L4.93693 9.01408L3.82727 14.1651C3.77224 14.4286 3.77245 14.701 3.82789 14.9644C3.88333 15.2277 3.99274 15.476 4.14886 15.6927L9.31857 23H11.6276L5.66798 14.5542L6.77765 9.37346L7.21609 9.46354L7.91723 11.9792C7.99922 12.2649 8.14472 12.5272 8.34229 12.7455C8.53986 12.9638 8.78411 13.1322 9.05588 13.2375L12.3578 14.5245L13 12.7276L9.72803 11.4406L8.99791 8.924C8.90502 8.58527 8.72189 8.27978 8.46909 8.04178C8.21628 7.80378 7.90379 7.64269 7.56666 7.57658L4.5284 6.97762C4.36493 6.9454 4.19802 6.93541 4.032 6.94792H4.03107ZM3.71041 17.2797L3.24299 19.137L0.526319 23H2.83353L4.99583 19.9755L5.11268 19.4062L3.71041 17.2797Z" fill="black"/>
</svg>
