<svg width="24" height="24" viewBox="0 0 24 24" fill="none" xmlns="http://www.w3.org/2000/svg">
<path d="M7.2 16.4999H8.4V22.4999H7.2C5.87438 22.4999 4.8 21.1569 4.8 19.4999C4.8 17.8428 5.87438 16.4999 7.2 16.4999ZM0 4.49987C0 2.84284 1.07438 1.49987 2.4 1.49987H3.6V7.49987H2.4C1.07438 7.49987 0 6.1569 0 4.49987ZM12.6548 10.4999C11.3456 10.4999 9.79875 9.88487 8.72738 8.99987C7.79775 8.23205 7.05788 7.49987 4.8 7.49987V1.49987L6.95738 0.751274C7.94025 0.410024 8.94525 0.136274 9.969 0.0458055C11.1949 -0.0624758 12.429 0.0143984 13.6283 0.33643C17.7338 1.43893 19.2 3.88018 19.2 5.99987C19.2 8.99987 16.0433 10.4999 12.6548 10.4999V10.4999ZM18.4283 23.6628C17.229 23.9849 15.9949 24.0622 14.769 23.9535C13.7453 23.863 12.7403 23.5892 11.7574 23.2485L9.6 22.4999V16.4999C11.8575 16.4999 12.5978 15.7677 13.5274 14.9999C14.5988 14.1149 16.1456 13.4999 17.4548 13.4999C20.8433 13.4999 24 14.9999 24 17.9999C24 20.1196 22.5338 22.5608 18.4283 23.6628V23.6628Z" fill="#787878"/>
</svg>
