<svg width="14" height="17" viewBox="0 0 14 17" fill="none" xmlns="http://www.w3.org/2000/svg">
<path d="M11.4336 8.76383C11.4259 7.44268 12.0245 6.44698 13.2333 5.71279C12.5572 4.74421 11.5344 4.21148 10.1861 4.10881C8.90949 4.00808 7.51279 4.85269 7.00137 4.85269C6.4609 4.85269 5.22499 4.14368 4.25253 4.14368C2.24562 4.17468 0.112793 5.74378 0.112793 8.93624C0.112793 9.87964 0.285201 10.854 0.630018 11.8575C1.09106 13.1786 2.75316 16.4157 4.48693 16.3634C5.39352 16.342 6.03472 15.7202 7.21446 15.7202C8.35933 15.7202 8.9521 16.3634 9.96331 16.3634C11.7126 16.3382 13.2158 13.3956 13.6536 12.0706C11.3077 10.9645 11.4336 8.83164 11.4336 8.76383ZM11.2283 13.9361C10.9513 14.3216 10.6723 14.6257 10.4166 14.8214C10.2132 14.9763 10.0563 15.0422 9.95169 15.0461C9.77734 15.0441 9.60881 15.0015 9.27949 14.8756C9.25624 14.8659 9.23106 14.8562 9.19813 14.8446L9.11289 14.8117C8.77582 14.6819 8.57436 14.6122 8.31671 14.5444C7.9564 14.4514 7.59802 14.401 7.21446 14.401C6.82315 14.401 6.45509 14.4494 6.08897 14.5405C5.8197 14.6083 5.59305 14.6838 5.26179 14.8078C5.24823 14.8136 5.10488 14.8679 5.0642 14.8834C4.9964 14.9085 4.9441 14.9279 4.89567 14.9453C4.6942 15.0151 4.56635 15.0441 4.45206 15.0461C4.4385 15.0461 4.42687 15.0441 4.41719 15.0422C4.39588 15.0383 4.36876 15.0306 4.33776 15.017C4.25059 14.9822 4.14598 14.9182 4.02782 14.8272C3.75661 14.616 3.45829 14.2848 3.15415 13.8605C2.62143 13.1128 2.11777 12.121 1.87562 11.4255C1.57729 10.5577 1.43007 9.72661 1.43007 8.93431C1.43007 7.76813 1.77489 6.8809 2.36766 6.27844C2.87714 5.76316 3.5629 5.47452 4.26221 5.45902C4.37651 5.46096 4.5431 5.48808 4.75426 5.54619C4.92085 5.59075 5.10295 5.6508 5.34897 5.73797C5.42258 5.76509 5.67635 5.85614 5.70734 5.86776C5.85651 5.92201 5.96886 5.96075 6.07928 5.99562C6.43185 6.10797 6.70499 6.16996 7.00137 6.16996C7.30163 6.16996 7.55928 6.10604 7.9254 5.98012C8.06294 5.93363 8.56273 5.74766 8.65184 5.71666C9.14776 5.54038 9.51388 5.44546 9.82964 5.42222C9.92263 5.41447 10.0059 5.41447 10.0853 5.42028C10.5251 5.45515 10.9009 5.54232 11.2205 5.68761C10.4922 6.52834 10.1163 7.55698 10.1183 8.75609C10.1125 9.04085 10.1357 9.37017 10.2171 9.75954C10.3411 10.3504 10.5774 10.9354 10.9513 11.4836C11.236 11.9001 11.5886 12.2759 12.0109 12.6033C11.7881 13.0624 11.515 13.537 11.2283 13.9361ZM9.39765 2.85546C10.3798 1.68929 10.2907 0.627716 10.2616 0.246094C9.39378 0.29646 8.39033 0.836931 7.81886 1.50138C7.18928 2.21426 6.81928 3.09567 6.8987 4.08944C7.83629 4.16112 8.69252 3.67876 9.39765 2.85546Z" fill="white"/>
</svg>
