<svg width="40" height="54" viewBox="0 0 40 54" fill="none" xmlns="http://www.w3.org/2000/svg">
<path d="M39.6 15.6606V44.6434C39.6 46.105 38.3344 46.8022 36.8 47.8914C35.568 48.7678 34 47.6814 34 46.2478V17.9287C34 17.3379 33.7928 16.775 33.1208 16.4306C32.4488 16.0862 11.4544 5.04865 11.4544 5.04865C11.1156 4.92265 9.63719 3.99025 7.66599 5.00385C5.79279 5.96705 4.77359 7.01425 4.51319 7.50705L27.4172 20.0566C28.0248 20.3758 28.4 20.8687 28.4 21.5015V51.747C28.393 52.0882 28.2932 52.421 28.1111 52.7097C27.929 52.9983 27.6717 53.2318 27.3668 53.385C27.0769 53.5281 26.7577 53.6019 26.4344 53.6006C26.0542 53.6052 25.6801 53.5044 25.3536 53.3094C24.7516 52.9426 3.58639 39.9646 2.18919 39.1218C1.51719 38.7186 0.730389 37.8926 0.713589 37.2794L0.399989 8.47865C0.399989 7.92425 0.335589 6.94705 1.20919 5.58905C3.16079 2.55385 9.97039 -0.898549 13.4172 0.890651L38.6144 13.6447C39.222 13.9583 39.6 14.5854 39.6 15.6606V15.6606Z" fill="#787878"/>
</svg>
