<svg width="23" height="27" viewBox="0 0 23 27" fill="none" xmlns="http://www.w3.org/2000/svg">
<path d="M18.8906 14.2132C18.8776 12.0086 19.8765 10.3471 21.8935 9.12204C20.7654 7.5058 19.0587 6.61687 16.8089 6.44555C14.6787 6.27746 12.348 7.68682 11.4947 7.68682C10.5928 7.68682 8.5305 6.50374 6.90779 6.50374C3.55895 6.55545 0 9.17376 0 14.5009C0 16.0751 0.28769 17.701 0.86307 19.3754C1.6324 21.58 4.40586 26.9814 7.29892 26.8942C8.81172 26.8586 9.88167 25.821 11.8502 25.821C13.7606 25.821 14.7498 26.8942 16.4371 26.8942C19.356 26.8521 21.8644 21.942 22.595 19.731C18.6805 17.8853 18.8906 14.3263 18.8906 14.2132ZM18.5479 22.8439C18.0857 23.4871 17.6202 23.9946 17.1935 24.3211C16.8541 24.5797 16.5923 24.6896 16.4177 24.6961C16.1268 24.6929 15.8456 24.6217 15.2961 24.4116C15.2573 24.3955 15.2152 24.3793 15.1603 24.3599L15.0181 24.305C14.4556 24.0884 14.1194 23.972 13.6895 23.8589C13.0883 23.7037 12.4903 23.6197 11.8502 23.6197C11.1973 23.6197 10.5831 23.7005 9.97218 23.8524C9.52286 23.9656 9.14466 24.0916 8.59191 24.2985C8.56928 24.3082 8.33008 24.3987 8.2622 24.4246C8.14906 24.4666 8.06179 24.4989 7.98097 24.528C7.6448 24.6444 7.43145 24.6929 7.24074 24.6961C7.21811 24.6961 7.19872 24.6929 7.18255 24.6896C7.147 24.6832 7.10174 24.6702 7.05002 24.6476C6.90456 24.5894 6.73001 24.4827 6.53283 24.3308C6.08028 23.9785 5.58248 23.4257 5.07498 22.7178C4.18605 21.4701 3.34561 19.8151 2.94155 18.6546C2.44375 17.2065 2.19808 15.8197 2.19808 14.4976C2.19808 12.5517 2.77346 11.0712 3.7626 10.0659C4.61274 9.20608 5.75703 8.72444 6.92396 8.69858C7.11467 8.70182 7.39266 8.74707 7.745 8.84405C8.023 8.91839 8.32685 9.0186 8.73737 9.16406C8.86021 9.20931 9.28366 9.36124 9.33538 9.38064C9.58428 9.47114 9.77176 9.53579 9.95602 9.59398C10.5443 9.78146 11.0001 9.8849 11.4947 9.8849C11.9957 9.8849 12.4256 9.77823 13.0366 9.56812C13.2661 9.49054 14.1 9.18022 14.2487 9.1285C15.0763 8.83435 15.6872 8.67596 16.2141 8.63717C16.3692 8.62424 16.5082 8.62424 16.6408 8.63393C17.3745 8.69212 18.0016 8.83758 18.535 9.08002C17.3196 10.4829 16.6925 12.1994 16.6957 14.2003C16.686 14.6754 16.7248 15.2249 16.8606 15.8747C17.0675 16.8606 17.4618 17.8368 18.0857 18.7516C18.5609 19.4466 19.1492 20.0737 19.8538 20.6199C19.4821 21.386 19.0263 22.178 18.5479 22.8439ZM15.4932 4.35414C17.1321 2.40819 16.9834 0.636797 16.9349 0C15.4868 0.0840443 13.8124 0.985904 12.8588 2.09464C11.8082 3.28419 11.1908 4.75497 11.3234 6.41323C12.8879 6.53283 14.3166 5.72794 15.4932 4.35414Z" fill="white"/>
</svg>
