<svg width="18" height="19" viewBox="0 0 18 19" fill="none" xmlns="http://www.w3.org/2000/svg">
<path d="M9.3792 0.331787C6.76592 0.331787 4.63986 2.45785 4.63986 5.07112C4.63986 7.68439 6.76592 9.81046 9.3792 9.81046C11.9925 9.81046 14.1185 7.68439 14.1185 5.07112C14.1185 2.45785 11.9925 0.331787 9.3792 0.331787ZM9.3792 7.91472C7.81142 7.91472 6.53559 6.6389 6.53559 5.07112C6.53559 3.50335 7.81142 2.22752 9.3792 2.22752C10.947 2.22752 12.2228 3.50335 12.2228 5.07112C12.2228 6.6389 10.947 7.91472 9.3792 7.91472ZM17.91 18.3413V17.3934C17.91 13.7356 14.9328 10.7583 11.2749 10.7583H7.48346C3.82469 10.7583 0.848389 13.7356 0.848389 17.3934V18.3413H2.74412V17.3934C2.74412 14.7801 4.87019 12.6541 7.48346 12.6541H11.2749C13.8882 12.6541 16.0143 14.7801 16.0143 17.3934V18.3413H17.91Z" fill="white"/>
</svg>
