<svg width="18" height="19" viewBox="0 0 18 19" fill="none" xmlns="http://www.w3.org/2000/svg">
<path d="M9.37944 0.331757C6.76617 0.331757 4.6401 2.45782 4.6401 5.07109C4.6401 7.68436 6.76617 9.81043 9.37944 9.81043C11.9927 9.81043 14.1188 7.68436 14.1188 5.07109C14.1188 2.45782 11.9927 0.331757 9.37944 0.331757ZM9.37944 7.91469C7.81167 7.91469 6.53584 6.63887 6.53584 5.07109C6.53584 3.50332 7.81167 2.22749 9.37944 2.22749C10.9472 2.22749 12.223 3.50332 12.223 5.07109C12.223 6.63887 10.9472 7.91469 9.37944 7.91469ZM17.9102 18.3412V17.3934C17.9102 13.7355 14.933 10.7583 11.2752 10.7583H7.4837C3.82494 10.7583 0.848633 13.7355 0.848633 17.3934V18.3412H2.74437V17.3934C2.74437 14.7801 4.87043 12.654 7.4837 12.654H11.2752C13.8884 12.654 16.0145 14.7801 16.0145 17.3934V18.3412H17.9102Z" fill="white"/>
</svg>
