<svg width="33" height="43" viewBox="0 0 33 43" fill="none" xmlns="http://www.w3.org/2000/svg">
<path d="M32.2504 12.3881V35.6778C32.2504 36.8523 31.2334 37.4126 30.0004 38.2878C29.0104 38.9921 27.7504 38.1191 27.7504 36.9671V14.2106C27.7504 13.7358 27.5839 13.2836 27.0439 13.0068C26.5039 12.7301 9.63337 3.86055 9.63337 3.86055C9.36112 3.7593 8.17312 3.01005 6.58912 3.82455C5.08387 4.59855 4.26487 5.44005 4.05562 5.83605L22.4606 15.9206C22.9489 16.1771 23.2504 16.5731 23.2504 17.0816V41.386C23.2448 41.6602 23.1645 41.9277 23.0182 42.1596C22.8719 42.3915 22.6651 42.5792 22.4201 42.7023C22.1871 42.8173 21.9307 42.8766 21.6709 42.8755C21.3653 42.8792 21.0647 42.7982 20.8024 42.6415C20.3186 42.3468 3.31087 31.9181 2.18812 31.2408C1.64812 30.9168 1.01587 30.253 1.00237 29.7603L0.750366 6.6168C0.750366 6.1713 0.698616 5.38605 1.40062 4.2948C2.96887 1.8558 8.44087 -0.918446 11.2106 0.519304L31.4584 10.7681C31.9466 11.0201 32.2504 11.5241 32.2504 12.3881V12.3881Z" fill="#787878"/>
</svg>
