<svg width="20" height="18" viewBox="0 0 20 18" fill="none" xmlns="http://www.w3.org/2000/svg">
<path d="M10 8.66667C9.29939 8.66658 8.62215 8.86827 8.09215 9.23484C7.56215 9.60141 7.21481 10.1084 7.11365 10.663C7.0125 11.2176 7.1643 11.7828 7.54128 12.2552C7.91826 12.7277 8.49523 13.0758 9.16667 13.2358V14.6667C9.16667 14.8435 9.25446 15.013 9.41074 15.1381C9.56702 15.2631 9.77899 15.3333 10 15.3333C10.221 15.3333 10.433 15.2631 10.5893 15.1381C10.7455 15.013 10.8333 14.8435 10.8333 14.6667V13.2358C11.5048 13.0758 12.0817 12.7277 12.4587 12.2552C12.8357 11.7828 12.9875 11.2176 12.8863 10.663C12.7852 10.1084 12.4379 9.60141 11.9079 9.23484C11.3779 8.86827 10.7006 8.66658 10 8.66667V8.66667ZM10 12C9.75277 12 9.5111 11.9414 9.30554 11.8315C9.09998 11.7216 8.93976 11.5654 8.84515 11.3827C8.75054 11.2 8.72579 10.9989 8.77402 10.8049C8.82225 10.6109 8.9413 10.4327 9.11612 10.2929C9.29093 10.153 9.51366 10.0578 9.75614 10.0192C9.99861 9.98063 10.2499 10.0004 10.4784 10.0761C10.7068 10.1518 10.902 10.28 11.0393 10.4444C11.1767 10.6089 11.25 10.8022 11.25 11C11.2496 11.2651 11.1178 11.5193 10.8835 11.7068C10.6491 11.8942 10.3314 11.9997 10 12V12ZM18.3333 6H14.5833V3.66667C14.5833 2.69421 14.1004 1.76158 13.2409 1.07394C12.3814 0.386309 11.2156 0 10 0C8.78442 0 7.61864 0.386309 6.75909 1.07394C5.89955 1.76158 5.41667 2.69421 5.41667 3.66667V6H1.66667C1.22479 6.0004 0.801157 6.141 0.488704 6.39096C0.176251 6.64093 0.000496273 6.97983 0 7.33333V16.6667C0.000496273 17.0202 0.176251 17.3591 0.488704 17.609C0.801157 17.859 1.22479 17.9996 1.66667 18H18.3333C18.7752 17.9996 19.1988 17.859 19.5113 17.609C19.8237 17.3591 19.9995 17.0202 20 16.6667V7.33333C19.9995 6.97983 19.8237 6.64093 19.5113 6.39096C19.1988 6.141 18.7752 6.0004 18.3333 6ZM7.08333 3.66667C7.08333 3.04783 7.39062 2.45434 7.9376 2.01675C8.48459 1.57917 9.22645 1.33333 10 1.33333C10.7735 1.33333 11.5154 1.57917 12.0624 2.01675C12.6094 2.45434 12.9167 3.04783 12.9167 3.66667V6H7.08333V3.66667ZM18.3333 16.6667H1.66667V7.33333H18.3333L18.3344 16.6667H18.3333Z" fill="#4F4F4F"/>
</svg>
