<svg width="45" height="32" viewBox="0 0 45 32" fill="none" xmlns="http://www.w3.org/2000/svg">
<path d="M13.5 15.7192C17.8523 15.7192 21.375 12.2034 21.375 7.85959C21.375 3.51576 17.8523 0 13.5 0C9.14766 0 5.625 3.51576 5.625 7.85959C5.625 12.2034 9.14766 15.7192 13.5 15.7192ZM18.9 17.9648H18.3164C16.8539 18.6665 15.2297 19.0876 13.5 19.0876C11.7703 19.0876 10.1531 18.6665 8.68359 17.9648H8.1C3.62812 17.9648 0 21.5858 0 26.0489V28.07C0 29.9296 1.51172 31.4384 3.375 31.4384H23.625C25.4883 31.4384 27 29.9296 27 28.07V26.0489C27 21.5858 23.3719 17.9648 18.9 17.9648ZM33.75 15.7192C37.4766 15.7192 40.5 12.7017 40.5 8.98239C40.5 5.26312 37.4766 2.2456 33.75 2.2456C30.0234 2.2456 27 5.26312 27 8.98239C27 12.7017 30.0234 15.7192 33.75 15.7192ZM37.125 17.9648H36.8578C35.8805 18.3016 34.8469 18.5262 33.75 18.5262C32.6531 18.5262 31.6195 18.3016 30.6422 17.9648H30.375C28.9406 17.9648 27.6187 18.3788 26.4586 19.0455C28.1742 20.8911 29.25 23.3402 29.25 26.0489V28.7436C29.25 28.898 29.2148 29.0454 29.2078 29.1928H41.625C43.4883 29.1928 45 27.684 45 25.8244C45 21.4805 41.4773 17.9648 37.125 17.9648V17.9648Z" fill="#787878"/>
</svg>
