<svg width="18" height="19" viewBox="0 0 18 19" fill="none" xmlns="http://www.w3.org/2000/svg">
<path d="M9.37913 0.331787C6.76586 0.331787 4.6398 2.45785 4.6398 5.07112C4.6398 7.68439 6.76586 9.81046 9.37913 9.81046C11.9924 9.81046 14.1185 7.68439 14.1185 5.07112C14.1185 2.45785 11.9924 0.331787 9.37913 0.331787ZM9.37913 7.91472C7.81136 7.91472 6.53553 6.6389 6.53553 5.07112C6.53553 3.50335 7.81136 2.22752 9.37913 2.22752C10.9469 2.22752 12.2227 3.50335 12.2227 5.07112C12.2227 6.6389 10.9469 7.91472 9.37913 7.91472ZM17.9099 18.3413V17.3934C17.9099 13.7356 14.9327 10.7583 11.2749 10.7583H7.4834C3.82463 10.7583 0.848328 13.7356 0.848328 17.3934V18.3413H2.74406V17.3934C2.74406 14.7801 4.87013 12.6541 7.4834 12.6541H11.2749C13.8881 12.6541 16.0142 14.7801 16.0142 17.3934V18.3413H17.9099Z" fill="white"/>
</svg>
