<svg width="20" height="26" viewBox="0 0 20 26" fill="none" xmlns="http://www.w3.org/2000/svg">
<path d="M18.2857 10H15.7143V6.57143C15.7143 2.43286 13.8071 0 10 0C6.19143 0 4.28571 2.43286 4.28571 6.57143V10H1.42857C0.638571 10 0 10.9229 0 11.7129V22.8571C0 23.6414 0.611429 24.4843 1.35857 24.7243L3.06857 25.2771C3.97557 25.5415 4.91275 25.6884 5.85714 25.7143H14.1429C15.0869 25.6887 16.0237 25.5413 16.93 25.2757L18.6386 24.7229C19.3871 24.4843 20 23.6414 20 22.8571V11.7129C20 10.9229 19.0743 10 18.2857 10ZM12.8571 10H7.14286V5.99857C7.14286 3.93429 8.28143 2.85714 10 2.85714C11.7186 2.85714 12.8571 3.93429 12.8571 5.99857V10Z" fill="#5F5F5F"/>
</svg>
