<svg width="25" height="25" viewBox="0 0 25 25" fill="none" xmlns="http://www.w3.org/2000/svg">
<path d="M20.187 0C19.6461 0.00130971 19.1109 0.109702 18.6121 0.318922C18.1133 0.528143 17.6609 0.834051 17.281 1.219L1.468 17.031L1.406 17.344L0.312 22.844L0 24.312L1.469 24L6.969 22.906L7.281 22.843L23.094 7.031C23.48 6.65172 23.7865 6.19937 23.9958 5.70035C24.205 5.20133 24.3128 4.66562 24.3128 4.1245C24.3128 3.58338 24.205 3.04767 23.9958 2.54865C23.7865 2.04963 23.48 1.59728 23.094 1.218C22.7139 0.833112 22.2613 0.52732 21.7623 0.318269C21.2634 0.109217 20.728 0.00104697 20.187 0V0ZM20.187 1.906C20.691 1.906 21.199 2.136 21.687 2.625C22.66 3.597 22.66 4.652 21.687 5.625L20.969 6.312L17.999 3.343L18.687 2.625C19.176 2.136 19.683 1.906 20.187 1.906V1.906ZM16.594 4.75L19.562 7.719L7.469 19.811C6.81615 18.5337 5.77677 17.495 4.499 16.843L16.594 4.75ZM3.219 18.469C3.81084 18.7071 4.34845 19.0624 4.79954 19.5135C5.25063 19.9646 5.6059 20.5022 5.844 21.094L2.562 21.75L3.219 18.469Z" fill="#4F4F4F"/>
</svg>
