<svg width="18" height="19" viewBox="0 0 18 19" fill="none" xmlns="http://www.w3.org/2000/svg">
<path d="M9.37944 0.331543C6.76617 0.331543 4.6401 2.45761 4.6401 5.07088C4.6401 7.68415 6.76617 9.81022 9.37944 9.81022C11.9927 9.81022 14.1188 7.68415 14.1188 5.07088C14.1188 2.45761 11.9927 0.331543 9.37944 0.331543ZM9.37944 7.91448C7.81167 7.91448 6.53584 6.63865 6.53584 5.07088C6.53584 3.50311 7.81167 2.22728 9.37944 2.22728C10.9472 2.22728 12.223 3.50311 12.223 5.07088C12.223 6.63865 10.9472 7.91448 9.37944 7.91448ZM17.9102 18.341V17.3932C17.9102 13.7353 14.933 10.7581 11.2752 10.7581H7.4837C3.82494 10.7581 0.848633 13.7353 0.848633 17.3932V18.341H2.74437V17.3932C2.74437 14.7799 4.87043 12.6538 7.4837 12.6538H11.2752C13.8884 12.6538 16.0145 14.7799 16.0145 17.3932V18.341H17.9102Z" fill="white"/>
</svg>
