<svg width="18" height="19" viewBox="0 0 18 19" fill="none" xmlns="http://www.w3.org/2000/svg">
<path d="M9.37944 0.331787C6.76617 0.331787 4.6401 2.45785 4.6401 5.07112C4.6401 7.68439 6.76617 9.81046 9.37944 9.81046C11.9927 9.81046 14.1188 7.68439 14.1188 5.07112C14.1188 2.45785 11.9927 0.331787 9.37944 0.331787ZM9.37944 7.91472C7.81167 7.91472 6.53584 6.6389 6.53584 5.07112C6.53584 3.50335 7.81167 2.22752 9.37944 2.22752C10.9472 2.22752 12.223 3.50335 12.223 5.07112C12.223 6.6389 10.9472 7.91472 9.37944 7.91472ZM17.9102 18.3413V17.3934C17.9102 13.7356 14.933 10.7583 11.2752 10.7583H7.4837C3.82494 10.7583 0.848633 13.7356 0.848633 17.3934V18.3413H2.74437V17.3934C2.74437 14.7801 4.87043 12.6541 7.4837 12.6541H11.2752C13.8884 12.6541 16.0145 14.7801 16.0145 17.3934V18.3413H17.9102Z" fill="white"/>
</svg>
