<svg width="18" height="21" viewBox="0 0 18 21" fill="none" xmlns="http://www.w3.org/2000/svg">
<path d="M14.9246 11.2876C14.9149 9.62804 15.6668 8.37725 17.1853 7.45498C16.336 6.23826 15.0511 5.56907 13.3575 5.4401C11.7538 5.31356 9.99933 6.37454 9.35691 6.37454C8.67798 6.37454 7.12545 5.4839 5.90386 5.4839C3.38282 5.52283 0.703613 7.49392 0.703613 11.5042C0.703613 12.6893 0.920189 13.9133 1.35334 15.1738C1.9325 16.8334 4.02038 20.8997 6.19831 20.834C7.33716 20.8072 8.14262 20.0261 9.62458 20.0261C11.0627 20.0261 11.8074 20.834 13.0776 20.834C15.275 20.8024 17.1634 17.106 17.7133 15.4415C14.7664 14.052 14.9246 11.3728 14.9246 11.2876ZM14.6667 17.7849C14.3187 18.2692 13.9683 18.6512 13.6471 18.897C13.3915 19.0917 13.1944 19.1744 13.063 19.1793C12.844 19.1768 12.6323 19.1233 12.2186 18.9651C12.1894 18.953 12.1578 18.9408 12.1164 18.9262L12.0093 18.8848C11.5859 18.7218 11.3329 18.6342 11.0092 18.549C10.5566 18.4322 10.1064 18.3689 9.62458 18.3689C9.13303 18.3689 8.67068 18.4298 8.21076 18.5441C7.87251 18.6293 7.5878 18.7242 7.17168 18.88C7.15465 18.8873 6.97457 18.9554 6.92347 18.9749C6.8383 19.0065 6.7726 19.0308 6.71176 19.0527C6.45869 19.1403 6.29808 19.1768 6.15451 19.1793C6.13747 19.1793 6.12287 19.1768 6.11071 19.1744C6.08394 19.1695 6.04987 19.1598 6.01093 19.1428C5.90143 19.099 5.77002 19.0187 5.62158 18.9043C5.2809 18.639 4.90615 18.2229 4.52411 17.69C3.85491 16.7507 3.22222 15.5048 2.91804 14.6312C2.54329 13.541 2.35835 12.4971 2.35835 11.5018C2.35835 10.0369 2.7915 8.92234 3.53613 8.16554C4.17612 7.51825 5.03756 7.15567 5.91603 7.1362C6.0596 7.13864 6.26888 7.1727 6.53412 7.24571C6.7434 7.30168 6.97214 7.37711 7.28119 7.48662C7.37366 7.52068 7.69244 7.63506 7.73137 7.64966C7.91875 7.71779 8.05989 7.76646 8.19859 7.81026C8.64148 7.9514 8.98459 8.02927 9.35691 8.02927C9.73409 8.02927 10.0577 7.94897 10.5177 7.7908C10.6904 7.73239 11.3183 7.49878 11.4302 7.45985C12.0532 7.23841 12.5131 7.11917 12.9097 7.08997C13.0265 7.08023 13.1312 7.08023 13.2309 7.08753C13.7833 7.13133 14.2554 7.24084 14.6569 7.42335C13.742 8.47946 13.2699 9.77161 13.2723 11.2779C13.265 11.6356 13.2942 12.0493 13.3964 12.5384C13.5521 13.2806 13.849 14.0155 14.3187 14.7042C14.6764 15.2274 15.1193 15.6995 15.6498 16.1107C15.3699 16.6874 15.0268 17.2836 14.6667 17.7849ZM12.3671 3.86567C13.6008 2.40074 13.4889 1.06722 13.4524 0.58783C12.3622 0.651099 11.1017 1.33003 10.3838 2.1647C9.59295 3.0602 9.12816 4.16741 9.22793 5.41576C10.4057 5.5058 11.4813 4.89988 12.3671 3.86567Z" fill="white"/>
</svg>
