<svg width="18" height="19" viewBox="0 0 18 19" fill="none" xmlns="http://www.w3.org/2000/svg">
<path d="M9.3792 0.331543C6.76592 0.331543 4.63986 2.45761 4.63986 5.07088C4.63986 7.68415 6.76592 9.81022 9.3792 9.81022C11.9925 9.81022 14.1185 7.68415 14.1185 5.07088C14.1185 2.45761 11.9925 0.331543 9.3792 0.331543ZM9.3792 7.91448C7.81142 7.91448 6.53559 6.63865 6.53559 5.07088C6.53559 3.50311 7.81142 2.22728 9.3792 2.22728C10.947 2.22728 12.2228 3.50311 12.2228 5.07088C12.2228 6.63865 10.947 7.91448 9.3792 7.91448ZM17.91 18.341V17.3932C17.91 13.7353 14.9328 10.7581 11.2749 10.7581H7.48346C3.82469 10.7581 0.848389 13.7353 0.848389 17.3932V18.341H2.74412V17.3932C2.74412 14.7799 4.87019 12.6538 7.48346 12.6538H11.2749C13.8882 12.6538 16.0143 14.7799 16.0143 17.3932V18.341H17.91Z" fill="white"/>
</svg>
