<svg width="24" height="26" viewBox="0 0 24 26" fill="none" xmlns="http://www.w3.org/2000/svg">
<path d="M12.0135 0C12.9543 0.0103649 13.8912 0.120492 14.8103 0.327791C15.0058 0.371906 15.1828 0.47666 15.3165 0.627416C15.4503 0.778171 15.5341 0.967394 15.5563 1.16865L15.7742 3.14705C15.8049 3.42598 15.9 3.69371 16.0518 3.9287C16.2036 4.1637 16.4079 4.3594 16.6482 4.50005C16.8884 4.6407 17.158 4.72238 17.4352 4.73852C17.7124 4.75466 17.9895 4.7048 18.2441 4.59296L20.0399 3.79615C20.2222 3.71498 20.425 3.69308 20.6202 3.73346C20.8153 3.77385 20.9933 3.87453 21.1294 4.02159C22.4265 5.42227 23.3924 7.10206 23.9544 8.93457C24.0133 9.12714 24.0116 9.33348 23.9493 9.52499C23.8871 9.7165 23.7675 9.88371 23.6071 10.0034L22.0151 11.1902C21.7912 11.3565 21.6092 11.5736 21.4837 11.8241C21.3583 12.0746 21.2929 12.3515 21.2929 12.6323C21.2929 12.913 21.3583 13.1899 21.4837 13.4404C21.6092 13.6909 21.7912 13.908 22.0151 14.0743L23.6083 15.2598C23.7692 15.3794 23.8893 15.5468 23.9518 15.7386C24.0142 15.9304 24.0161 16.1371 23.957 16.3299C23.3947 18.1624 22.4288 19.8421 21.132 21.2429C20.9962 21.3896 20.8188 21.4902 20.6241 21.5308C20.4295 21.5714 20.2272 21.5501 20.045 21.4696L18.2416 20.6703C17.9873 20.5575 17.7103 20.5069 17.433 20.5225C17.1557 20.5381 16.886 20.6195 16.6456 20.76C16.4053 20.9005 16.201 21.0963 16.0494 21.3315C15.8978 21.5666 15.803 21.8345 15.7729 22.1136L15.5563 24.0907C15.5344 24.2897 15.4523 24.4771 15.321 24.6272C15.1898 24.7772 15.0159 24.8826 14.8231 24.9289C12.9665 25.3754 11.0322 25.3754 9.17562 24.9289C8.98285 24.8826 8.80894 24.7772 8.6777 24.6272C8.54646 24.4771 8.46429 24.2897 8.44245 24.0907L8.22711 22.1162C8.19572 21.8378 8.10015 21.5708 7.9481 21.3366C7.79605 21.1024 7.59175 20.9076 7.35164 20.7677C7.11153 20.6278 6.84229 20.5468 6.56559 20.5313C6.28888 20.5157 6.01242 20.566 5.75843 20.678L3.95626 21.4761C3.77397 21.5568 3.57138 21.5784 3.37646 21.5378C3.18154 21.4972 3.0039 21.3964 2.86804 21.2494C1.57052 19.8471 0.604612 18.1655 0.0430253 16.3312C-0.0160689 16.1383 -0.0142488 15.9316 0.0482327 15.7399C0.110714 15.5481 0.230753 15.3807 0.391666 15.2611L1.9849 14.0743C2.20902 13.9082 2.39127 13.6911 2.5169 13.4406C2.64253 13.1901 2.708 12.9131 2.708 12.6323C2.708 12.3514 2.64253 12.0744 2.5169 11.8239C2.39127 11.5734 2.20902 11.3563 1.9849 11.1902L0.391666 10.006C0.23098 9.88622 0.111196 9.71879 0.0489481 9.52701C-0.0132999 9.33523 -0.0149221 9.12862 0.044307 8.93586C0.606393 7.10337 1.57229 5.42359 2.86932 4.02289C3.00543 3.87583 3.18337 3.77514 3.37855 3.73476C3.57373 3.69437 3.7765 3.71628 3.95883 3.79745L5.7533 4.59425C6.0084 4.70603 6.28588 4.75577 6.56344 4.73947C6.84101 4.72318 7.11092 4.64131 7.3515 4.50044C7.59209 4.35958 7.79663 4.16363 7.9487 3.92836C8.10077 3.69309 8.19613 3.42504 8.22711 3.14575L8.44502 1.16865C8.46701 0.966989 8.5509 0.777348 8.68491 0.626319C8.81892 0.47529 8.99634 0.370448 9.19229 0.326495C10.1113 0.120492 11.0509 0.0116605 12.0135 0ZM11.9981 8.74541C10.9782 8.74541 10.0002 9.15491 9.27904 9.88384C8.5579 10.6128 8.15277 11.6014 8.15277 12.6323C8.15277 13.6631 8.5579 14.6517 9.27904 15.3807C10.0002 16.1096 10.9782 16.5191 11.9981 16.5191C13.0179 16.5191 13.996 16.1096 14.7171 15.3807C15.4383 14.6517 15.8434 13.6631 15.8434 12.6323C15.8434 11.6014 15.4383 10.6128 14.7171 9.88384C13.996 9.15491 13.0179 8.74541 11.9981 8.74541Z" fill="#636363"/>
</svg>
